<svg width="100" height="100" viewBox="0 0 100 100" fill="none" xmlns="http://www.w3.org/2000/svg">
<circle cx="50" cy="50" r="48" stroke="#E26C6C" stroke-width="4"/>
<path d="M67.8443 68H33.4819C22.1727 68 22.1727 82 33.4819 82H67.8443C78.7186 82 78.7186 68 67.8443 68Z" stroke="#E26C6C" stroke-width="4"/>
<line x1="25" y1="74" x2="75" y2="74" stroke="#E26C6C" stroke-width="2"/>
<line x1="41" y1="68" x2="41" y2="82" stroke="#E26C6C" stroke-width="2"/>
<line x1="51" y1="68" x2="51" y2="82" stroke="#E26C6C" stroke-width="2"/>
<line x1="61" y1="68" x2="61" y2="82" stroke="#E26C6C" stroke-width="2"/>
<line x1="31" y1="68" x2="31" y2="82" stroke="#E26C6C" stroke-width="2"/>
<line x1="71" y1="68" x2="71" y2="82" stroke="#E26C6C" stroke-width="2"/>
<path d="M60 44L72 56" stroke="#E26C6C" stroke-width="4"/>
<path d="M60 56L72 44" stroke="#E26C6C" stroke-width="4"/>
<path d="M28 44L40 56" stroke="#E26C6C" stroke-width="4"/>
<path d="M28 56L40 44" stroke="#E26C6C" stroke-width="4"/>
</svg>
